<svg xmlns="http://www.w3.org/2000/svg" xmlns:xlink="http://www.w3.org/1999/xlink" width="1209" zoomAndPan="magnify" viewBox="0 0 906.75 906.749977" height="1209" preserveAspectRatio="xMidYMid meet" version="1.0"><defs><g/><clipPath id="f8e61674d2"><path d="M 417.253906 227.484375 L 630.558594 227.484375 L 630.558594 315.777344 L 417.253906 315.777344 Z M 417.253906 227.484375 " clip-rule="nonzero"/></clipPath><clipPath id="8df4f0adcf"><path d="M 8.5 18.1875 L 735 18.1875 L 735 903.695312 L 8.5 903.695312 Z M 8.5 18.1875 " clip-rule="nonzero"/></clipPath><clipPath id="59dec036b3"><path d="M 311 107 L 891.757812 107 L 891.757812 815 L 311 815 Z M 311 107 " clip-rule="nonzero"/></clipPath><clipPath id="f1db2be5da"><path d="M 189.660156 431.980469 L 631.773438 431.980469 L 631.773438 546.882812 L 189.660156 546.882812 Z M 189.660156 431.980469 " clip-rule="nonzero"/></clipPath><clipPath id="af1fea6e21"><path d="M 232.398438 431.980469 L 588.789062 431.980469 C 612.390625 431.980469 631.527344 451.113281 631.527344 474.71875 L 631.527344 504.144531 C 631.527344 527.75 612.390625 546.882812 588.789062 546.882812 L 232.398438 546.882812 C 208.796875 546.882812 189.660156 527.75 189.660156 504.144531 L 189.660156 474.71875 C 189.660156 451.113281 208.796875 431.980469 232.398438 431.980469 Z M 232.398438 431.980469 " clip-rule="nonzero"/></clipPath><clipPath id="1ffbf30fb7"><path d="M 248 467 L 631.472656 467 L 631.472656 564 L 248 564 Z M 248 467 " clip-rule="nonzero"/></clipPath></defs><g clip-path="url(#f8e61674d2)"><path fill="#ffffff" d="M 432.417969 227.550781 L 615.398438 227.550781 C 616.394531 227.550781 617.378906 227.648438 618.355469 227.84375 C 619.332031 228.035156 620.28125 228.324219 621.199219 228.703125 C 622.121094 229.085938 622.992188 229.554688 623.820312 230.105469 C 624.648438 230.660156 625.414062 231.289062 626.117188 231.992188 C 626.824219 232.695312 627.453125 233.460938 628.003906 234.289062 C 628.558594 235.117188 629.023438 235.992188 629.40625 236.910156 C 629.785156 237.832031 630.074219 238.777344 630.269531 239.753906 C 630.460938 240.730469 630.558594 241.71875 630.558594 242.714844 L 630.558594 300.285156 C 630.558594 301.28125 630.460938 302.269531 630.269531 303.246094 C 630.074219 304.222656 629.785156 305.167969 629.40625 306.089844 C 629.023438 307.007812 628.558594 307.882812 628.003906 308.710938 C 627.453125 309.539062 626.824219 310.304688 626.117188 311.007812 C 625.414062 311.710938 624.648438 312.339844 623.820312 312.894531 C 622.992188 313.445312 622.121094 313.914062 621.199219 314.296875 C 620.28125 314.675781 619.332031 314.964844 618.355469 315.15625 C 617.378906 315.351562 616.394531 315.449219 615.398438 315.449219 L 432.417969 315.449219 C 431.421875 315.449219 430.433594 315.351562 429.457031 315.15625 C 428.484375 314.964844 427.535156 314.675781 426.613281 314.296875 C 425.695312 313.914062 424.820312 313.445312 423.992188 312.894531 C 423.164062 312.339844 422.398438 311.710938 421.695312 311.007812 C 420.992188 310.304688 420.363281 309.539062 419.808594 308.710938 C 419.257812 307.882812 418.789062 307.007812 418.410156 306.089844 C 418.027344 305.167969 417.738281 304.222656 417.546875 303.246094 C 417.351562 302.269531 417.253906 301.28125 417.253906 300.285156 L 417.253906 242.714844 C 417.253906 241.71875 417.351562 240.730469 417.546875 239.753906 C 417.738281 238.777344 418.027344 237.832031 418.410156 236.910156 C 418.789062 235.992188 419.257812 235.117188 419.808594 234.289062 C 420.363281 233.460938 420.992188 232.695312 421.695312 231.992188 C 422.398438 231.289062 423.164062 230.660156 423.992188 230.105469 C 424.820312 229.554688 425.695312 229.085938 426.613281 228.703125 C 427.535156 228.324219 428.484375 228.035156 429.457031 227.84375 C 430.433594 227.648438 431.421875 227.550781 432.417969 227.550781 Z M 432.417969 227.550781 " fill-opacity="1" fill-rule="nonzero"/></g><g fill="#000000" fill-opacity="1"><g transform="translate(500.827147, 689.901694)"><g><path d="M 215.171875 -82.21875 C 211.3125 -81.765625 209.953125 -74.296875 208.75 -70.25 C 200.4375 -41.1875 170.046875 -32.546875 139.078125 -28.859375 C 123.578125 -27.015625 108.5 -26.359375 95.15625 -25.328125 C 86.3125 -24.28125 82.53125 -27.765625 80.984375 -35.984375 C 79.171875 -46.4375 63.921875 -146.71875 52.484375 -242.96875 C 41.84375 -332.578125 34.421875 -418.65625 45.28125 -421.625 C 49.578125 -423.265625 65.671875 -424.609375 64.75 -432.359375 C 64.296875 -436.234375 59.1875 -436.734375 48.671875 -435.484375 C 37.609375 -434.171875 20.59375 -431.03125 -4.296875 -428.078125 C -13.6875 -426.96875 -24.203125 -425.71875 -35.875 -424.875 C -40.296875 -424.359375 -44.59375 -422.71875 -44.0625 -418.296875 C -43.34375 -412.21875 -38.328125 -412.25 -33.34375 -412.84375 C -15.015625 -414.46875 -12.109375 -413.6875 -5.671875 -359.484375 C -2.515625 -332.921875 1.515625 -294.125 8.421875 -236.046875 C 13.15625 -196.21875 24.46875 -72.46875 27.421875 -43.078125 C 30.25 -19.296875 27.625 -17.875 14.34375 -16.296875 C 7.703125 -15.5 4.234375 -11.71875 4.953125 -5.640625 C 5.546875 -0.65625 9.40625 -1.109375 13.28125 -1.578125 C 21.4375 -3.671875 159.046875 -21.140625 188.796875 -25.796875 C 206.4375 -28.453125 214.875 -32.8125 218.640625 -38.875 C 222 -43.75 222.953125 -64.078125 221.703125 -74.59375 C 221.109375 -79.5625 219.609375 -82.75 215.171875 -82.21875 Z M 215.171875 -82.21875 "/></g></g></g><g fill="#ff3131" fill-opacity="1"><g transform="translate(443.099327, 666.097132)"><g><path d="M 6.375 -163.546875 C 6.375 -158.328125 8.703125 -156 12.765625 -156 C 14.5 -156 17.390625 -157.15625 20.875 -157.75 C 24.359375 -158.328125 29 -159.484375 34.21875 -160.0625 C 31.3125 -100.328125 28.421875 -48.140625 19.71875 -14.5 C 16.234375 -1.15625 6.375 5.796875 6.375 9.859375 C 6.375 12.765625 7.546875 13.34375 9.859375 13.34375 C 13.921875 13.34375 20.296875 9.859375 22.03125 8.125 C 30.734375 0 43.5 -15.078125 54.515625 -48.71875 C 64.953125 -81.1875 69.59375 -120.625 72.484375 -161.21875 L 74.8125 -161.21875 C 96.265625 -161.21875 117.734375 -160.640625 131.0625 -160.640625 C 149.046875 -160.640625 168.1875 -160.640625 188.484375 -161.796875 C 186.15625 -117.734375 184.421875 -75.96875 184.421875 -34.21875 C 184.421875 -24.9375 183.265625 -15.078125 179.78125 -6.375 C 178.046875 -3.484375 172.234375 -2.3125 171.078125 -2.3125 C 168.1875 -1.15625 166.4375 0.578125 166.4375 2.90625 C 166.4375 6.375 169.34375 9.28125 172.234375 9.28125 C 174.5625 9.28125 179.78125 7.546875 186.15625 5.796875 C 201.8125 2.3125 218.0625 0.578125 233.140625 0.578125 C 240.09375 0.578125 247.046875 1.734375 256.90625 3.484375 C 262.71875 3.484375 265.609375 0.578125 265.609375 -4.0625 C 265.609375 -8.703125 254.015625 -8.703125 252.265625 -8.703125 L 248.21875 -8.703125 C 245.3125 -8.703125 245.890625 -9.859375 244.734375 -15.65625 C 241.25 -38.28125 238.359375 -113.671875 238.359375 -158.328125 C 238.359375 -171.65625 238.9375 -185 239.515625 -198.34375 C 240.671875 -227.328125 248.796875 -403.0625 252.265625 -414.65625 C 252.859375 -416.96875 257.5 -418.71875 273.15625 -422.78125 C 276.046875 -423.359375 277.796875 -427.40625 277.796875 -430.890625 C 277.796875 -434.375 276.046875 -437.265625 273.15625 -438.4375 C 269.671875 -438.4375 267.9375 -437.859375 266.765625 -436.6875 C 252.859375 -425.09375 236.609375 -425.09375 222.703125 -425.09375 C 179.203125 -425.09375 140.34375 -441.328125 99.171875 -441.328125 C 69.015625 -441.328125 29.578125 -423.9375 23.203125 -393.78125 C 23.203125 -389.140625 24.359375 -387.390625 27.84375 -386.8125 C 32.46875 -386.8125 33.640625 -388.5625 34.21875 -390.296875 C 43.5 -418.140625 78.296875 -428.578125 100.328125 -429.734375 C 64.953125 -386.234375 57.40625 -358.984375 52.78125 -334.625 C 42.328125 -278.375 38.28125 -221.53125 34.796875 -169.921875 C 30.15625 -169.921875 26.09375 -170.5 22.03125 -170.5 C 17.984375 -170.5 7.546875 -169.921875 6.375 -163.546875 Z M 114.25 -385.65625 C 128.171875 -404.796875 148.46875 -418.71875 171.078125 -418.71875 C 193.703125 -418.71875 195.4375 -401.3125 195.4375 -346.21875 C 195.4375 -282.421875 192.546875 -226.171875 189.640625 -173.40625 C 160.640625 -171.65625 120.046875 -169.921875 73.078125 -169.921875 C 78.296875 -251.6875 79.453125 -337.53125 114.25 -385.65625 Z M 114.25 -385.65625 "/></g></g></g><g fill="#000000" fill-opacity="1"><g transform="translate(218.774922, 697.68519)"><g><path d="M 162.328125 -256.640625 C 218.78125 -291.921875 259.203125 -341.96875 259.203125 -406.125 C 259.203125 -472.859375 189.265625 -481.84375 139.21875 -481.84375 C 103.296875 -481.84375 69.9375 -475.421875 25.65625 -474.78125 C 23.734375 -474.78125 17.328125 -472.859375 17.328125 -467.078125 C 17.328125 -460.671875 21.8125 -455.53125 27.59375 -455.53125 C 34 -455.53125 38.5 -458.09375 43.625 -458.09375 C 50.6875 -458.09375 53.25 -454.25 53.25 -448.46875 C 53.25 -408.046875 29.515625 -134.734375 24.375 -34 C 23.09375 -8.984375 23.09375 -8.34375 14.109375 -5.125 C 10.90625 -3.84375 6.421875 -1.28125 6.421875 2.5625 C 6.421875 6.421875 9.625 9.625 12.828125 9.625 C 24.375 9.625 39.140625 0 70.578125 0 C 99.453125 0 125.75 7.0625 152.703125 7.0625 C 245.734375 7.0625 291.921875 -59.671875 291.921875 -144.359375 C 291.921875 -204.671875 266.90625 -256.640625 166.171875 -256.640625 Z M 141.15625 -10.90625 C 114.203125 -10.90625 90.46875 -23.734375 87.25 -39.140625 C 82.765625 -58.390625 81.484375 -82.125 81.484375 -107.78125 C 81.484375 -175.796875 93.03125 -254.078125 94.3125 -276.53125 C 97.515625 -324.640625 101.375 -377.90625 109.078125 -421.53125 C 114.203125 -447.828125 131.53125 -462.59375 156.546875 -462.59375 C 188.625 -462.59375 204.03125 -451.6875 204.03125 -410.625 C 204.03125 -332.984375 185.421875 -273.3125 112.28125 -257.28125 C 107.78125 -256 105.859375 -250.859375 105.859375 -247.65625 C 105.859375 -243.8125 110.359375 -242.515625 112.28125 -242.515625 C 113.5625 -242.515625 114.203125 -242.515625 115.484375 -243.15625 C 123.1875 -245.734375 130.25 -246.375 137.9375 -246.375 C 206.59375 -246.375 236.109375 -196.328125 236.109375 -137.9375 C 236.109375 -79.5625 202.75 -10.90625 141.15625 -10.90625 Z M 141.15625 -10.90625 "/></g></g></g><g clip-path="url(#8df4f0adcf)"><path fill="#ff3131" d="M 542.320312 851.757812 C 326.5625 851.757812 151.65625 676.851562 151.65625 461.09375 C 151.65625 245.335938 326.5625 70.433594 542.320312 70.433594 C 612.335938 70.433594 677.988281 88.9375 734.8125 121.195312 C 657.992188 57.015625 559.105469 18.347656 451.167969 18.347656 C 206.644531 18.347656 8.417969 216.574219 8.417969 461.09375 C 8.417969 705.613281 206.644531 903.84375 451.167969 903.84375 C 559.105469 903.84375 657.980469 865.171875 734.8125 800.992188 C 677.988281 833.25 612.335938 851.757812 542.320312 851.757812 " fill-opacity="1" fill-rule="nonzero"/></g><g clip-path="url(#59dec036b3)"><path fill="#000000" d="M 465.558594 773.074219 C 637.855469 773.074219 777.539062 633.394531 777.539062 461.09375 C 777.539062 288.796875 637.855469 149.113281 465.558594 149.113281 C 409.65625 149.113281 357.21875 163.902344 311.84375 189.652344 C 373.191406 138.398438 452.148438 107.523438 538.355469 107.523438 C 733.628906 107.523438 891.925781 265.816406 891.925781 461.09375 C 891.925781 656.371094 733.628906 814.667969 538.355469 814.667969 C 452.148438 814.667969 373.191406 783.789062 311.84375 732.539062 C 357.21875 758.289062 409.65625 773.074219 465.558594 773.074219 " fill-opacity="1" fill-rule="nonzero"/></g><g clip-path="url(#f1db2be5da)"><g clip-path="url(#af1fea6e21)"><path fill="#ffffff" d="M 189.660156 431.980469 L 631.324219 431.980469 L 631.324219 546.882812 L 189.660156 546.882812 Z M 189.660156 431.980469 " fill-opacity="1" fill-rule="nonzero"/></g></g><path fill="#000000" d="M 227.039062 481.515625 C 289.46875 564.535156 365.480469 514.039062 433.996094 476.691406 C 494.753906 443.585938 555.25 441.398438 615.296875 493.085938 C 561.953125 423.226562 496.246094 415.996094 421.597656 454.085938 C 360.476562 485.273438 294.476562 541.621094 227.039062 481.515625 " fill-opacity="1" fill-rule="evenodd"/><g clip-path="url(#1ffbf30fb7)"><path fill="#ff3131" d="M 248.253906 518.160156 C 309.859375 601.175781 384.863281 550.679688 452.472656 513.335938 C 512.425781 480.226562 572.121094 478.039062 631.375 529.730469 C 578.738281 459.867188 513.902344 452.636719 440.242188 490.726562 C 379.925781 521.914062 314.796875 578.265625 248.253906 518.160156 " fill-opacity="1" fill-rule="evenodd"/></g><path fill="#ff3131" d="M 319.390625 482.871094 C 287.734375 461.230469 269.585938 431.222656 269.417969 390.085938 C 269.3125 366.621094 235.808594 374.449219 237.355469 393.890625 C 240.96875 439.035156 270.386719 467.34375 319.390625 482.871094 " fill-opacity="1" fill-rule="evenodd"/><path fill="#ff3131" d="M 316.957031 488.257812 C 289.6875 488.847656 266.769531 479.011719 249.640625 455.292969 C 239.863281 441.765625 223.726562 460.167969 232.675781 470.769531 C 253.457031 495.378906 282.1875 499.570312 316.957031 488.257812 " fill-opacity="1" fill-rule="evenodd"/><path fill="#ff3131" d="M 338.894531 451.050781 C 330.464844 451.050781 323.628906 457.886719 323.628906 466.320312 C 323.628906 474.75 330.464844 481.585938 338.894531 481.585938 C 347.324219 481.585938 354.164062 474.75 354.164062 466.320312 C 354.160156 457.886719 347.324219 451.050781 338.894531 451.050781 " fill-opacity="1" fill-rule="evenodd"/><path fill="#ff3131" d="M 372.15625 438.324219 C 367.542969 438.324219 363.796875 442.066406 363.796875 446.683594 C 363.796875 451.296875 367.542969 455.042969 372.15625 455.042969 C 376.773438 455.042969 380.519531 451.296875 380.519531 446.683594 C 380.519531 442.066406 376.773438 438.324219 372.15625 438.324219 " fill-opacity="1" fill-rule="evenodd"/><path fill="#ff3131" d="M 340.660156 414.21875 C 334.269531 414.21875 329.085938 419.402344 329.085938 425.792969 C 329.085938 432.183594 334.269531 437.363281 340.660156 437.363281 C 347.050781 437.363281 352.230469 432.183594 352.230469 425.792969 C 352.230469 419.402344 347.050781 414.21875 340.660156 414.21875 " fill-opacity="1" fill-rule="evenodd"/></svg>